# xmcd CD database file generated by OrangeCD 6.4
#
# Track frame offsets:
#	150
#	18057
#	34188
#	55306
#	71592
#	88169
#	103006
#	120209
#	136113
#	154361
#	168305
#	190461
#	201617
#
# Disc length: 2835 seconds
#
# Revision: 0
# Processed by: cddbd v1.5.2PL0 Copyright (c) Steve Scherf et al.
# Submitted via: OrangeCD 6.4
#
DISCID=b20b110d
DTITLE=Fleur Jack and The Jandals - Ghosts of Cimarron
DYEAR=1900
DGENRE=Country
TTITLE0=Waiting by the Phone
TTITLE1=Ghosts of Cimarron
TTITLE2=Eyes Across the Fire
TTITLE3=Wild Ride
TTITLE4=Fuck Everybody Else
TTITLE5=Dark
TTITLE6=Drink With You
TTITLE7=In Your Arms
TTITLE8=Trinidad
TTITLE9=Olivia
TTITLE10=The Letter
TTITLE11=Sally was a Killer
TTITLE12=Leaving Me
EXTD=
EXTT0=
EXTT1=
EXTT2=
EXTT3=
EXTT4=
EXTT5=
EXTT6=
EXTT7=
EXTT8=
EXTT9=
EXTT10=
EXTT11=
EXTT12=
PLAYORDER=
